<?xml version="1.0" encoding="UTF-8"?>
<svg id="Layer_1" data-name="Layer 1" xmlns="http://www.w3.org/2000/svg" xmlns:xlink="http://www.w3.org/1999/xlink" viewBox="0 0 1352.64 1283.58">
  <defs>
    <style>
      .cls-1 {
        fill: url(#linear-gradient);
      }

      .cls-1, .cls-2, .cls-3, .cls-4, .cls-5, .cls-6, .cls-7, .cls-8, .cls-9, .cls-10, .cls-11, .cls-12, .cls-13, .cls-14 {
        stroke-width: 0px;
      }

      .cls-2 {
        fill: url(#linear-gradient-4);
      }

      .cls-3 {
        fill: url(#linear-gradient-2);
      }

      .cls-4 {
        fill: url(#linear-gradient-3);
      }

      .cls-5 {
        fill: url(#linear-gradient-5);
      }

      .cls-7 {
        fill: #630e0e;
      }

      .cls-8 {
        fill: #47c4d8;
      }

      .cls-9 {
        fill: #5253a3;
      }

      .cls-10 {
        fill: #3d2919;
      }

      .cls-11 {
        fill: #7dc242;
      }

      .cls-12 {
        fill: #fff;
      }

      .cls-13 {
        fill: #ef3f23;
      }

      .cls-14 {
        fill: #020202;
      }
    </style>
    <linearGradient id="linear-gradient" x1="295.89" y1="138.06" x2="1031.4" y2="138.06" gradientUnits="userSpaceOnUse">
      <stop offset="0" stop-color="#fff"/>
      <stop offset="0" stop-color="#3a53a4"/>
      <stop offset="1" stop-color="#623393"/>
    </linearGradient>
    <linearGradient id="linear-gradient-2" x1="98.62" y1="476.21" x2="1228.67" y2="476.21" xlink:href="#linear-gradient"/>
    <linearGradient id="linear-gradient-3" x1="122.74" y1="888.21" x2="1204.56" y2="888.21" xlink:href="#linear-gradient"/>
    <linearGradient id="linear-gradient-4" x1="165.36" y1="300.59" x2="1161.94" y2="300.59" xlink:href="#linear-gradient"/>
    <linearGradient id="linear-gradient-5" x1="92.15" y1="691.86" x2="1235.14" y2="691.86" xlink:href="#linear-gradient"/>
  </defs>
  <path class="cls-9" d="M257.3,919.62c16.77,8.37,30.54,24.75,49.26,25.7,29.58,1.5,50.51-36.4,80.02-33.94,24.34,2.03,39.03,30.57,62.98,35.39,35.36,7.11,51.52-32.2,87.31-29.41,23.5,1.83,42.03,19.56,55.31,37.26-13.8-8.95-33.47-18.25-53.58-13.4-20.47,4.94-22.14,19.9-47.33,30.36-31.17,12.94-61.6,3.75-66.25,2.27-25.04-7.95-23.16-19.5-41.57-22.8-33.41-5.98-47.15,30.7-80.61,26.78-24.98-2.93-27.72-24.57-58.49-34.83-25.76-8.58-51.09-2.49-68.4,3.96,14.09-28.49,52.9-41.53,81.34-27.34Z"/>
  <path class="cls-9" d="M1095.34,919.62c-16.77,8.37-30.54,24.75-49.26,25.7-29.58,1.5-50.51-36.4-80.02-33.94-24.34,2.03-39.03,30.57-62.98,35.39-35.36,7.11-51.52-32.2-87.31-29.41-23.5,1.83-42.03,19.56-55.31,37.26,13.8-8.95,33.47-18.25,53.58-13.4,20.47,4.94,22.14,19.9,47.33,30.36,31.17,12.94,61.6,3.75,66.25,2.27,25.04-7.95,23.16-19.5,41.57-22.8,33.41-5.98,47.15,30.7,80.61,26.78,24.98-2.93,27.72-24.57,58.49-34.83,25.76-8.58,51.09-2.49,68.4,3.96-14.09-28.49-52.9-41.53-81.34-27.34Z"/>
  <path class="cls-9" d="M257.3,1212.28c16.77,8.37,30.54,24.75,49.26,25.7,29.58,1.5,50.51-36.4,80.02-33.94,24.34,2.03,39.03,30.57,62.98,35.39,35.36,7.11,51.52-32.2,87.31-29.41,23.5,1.83,42.03,19.56,55.31,37.26-13.8-8.95-33.47-18.25-53.58-13.4-20.47,4.94-22.14,19.9-47.33,30.36-31.17,12.94-61.6,3.75-66.25,2.27-25.04-7.95-23.16-19.5-41.57-22.8-33.41-5.98-47.15,30.7-80.61,26.78-24.98-2.93-27.72-24.57-58.49-34.83-25.76-8.58-51.09-2.49-68.4,3.96,14.09-28.49,52.9-41.53,81.34-27.34Z"/>
  <path class="cls-9" d="M1095.34,1212.28c-16.77,8.37-30.54,24.75-49.26,25.7-29.58,1.5-50.51-36.4-80.02-33.94-24.34,2.03-39.03,30.57-62.98,35.39-35.36,7.11-51.52-32.2-87.31-29.41-23.5,1.83-42.03,19.56-55.31,37.26,13.8-8.95,33.47-18.25,53.58-13.4,20.47,4.94,22.14,19.9,47.33,30.36,31.17,12.94,61.6,3.75,66.25,2.27,25.04-7.95,23.16-19.5,41.57-22.8,33.41-5.98,47.15,30.7,80.61,26.78,24.98-2.93,27.72-24.57,58.49-34.83,25.76-8.58,51.09-2.49,68.4,3.96-14.09-28.49-52.9-41.53-81.34-27.34Z"/>
  <path class="cls-9" d="M98.82,981c16.77,8.37,30.54,24.75,49.26,25.7,29.58,1.5,50.51-36.4,80.02-33.94,24.34,2.03,39.03,30.57,62.98,35.39,35.36,7.11,51.52-32.2,87.31-29.41,23.5,1.83,42.03,19.56,55.31,37.26-13.8-8.95-33.47-18.25-53.58-13.4-20.47,4.94-22.14,19.9-47.33,30.36-31.17,12.94-61.6,3.75-66.25,2.27-25.04-7.95-23.16-19.5-41.57-22.8-33.41-5.98-47.15,30.7-80.61,26.78-24.98-2.93-27.72-24.57-58.49-34.83-25.76-8.58-51.09-2.49-68.4,3.96,14.09-28.49,52.9-41.53,81.34-27.34Z"/>
  <path class="cls-9" d="M81.34,1059.65c16.77,8.37,30.54,24.75,49.26,25.7,29.58,1.5,50.51-36.4,80.02-33.94,24.34,2.03,39.03,30.57,62.98,35.39,35.36,7.11,51.52-32.2,87.31-29.41,23.5,1.83,42.03,19.56,55.31,37.26-13.8-8.95-33.47-18.25-53.58-13.4-20.47,4.94-22.14,19.9-47.33,30.36-31.17,12.94-61.6,3.75-66.25,2.27-25.04-7.95-23.16-19.5-41.57-22.8-33.41-5.98-47.15,30.7-80.61,26.78-24.98-2.93-27.72-24.57-58.49-34.83-25.76-8.58-51.09-2.49-68.4,3.96,14.09-28.49,52.9-41.53,81.34-27.34Z"/>
  <path class="cls-9" d="M98.82,1136.3c16.77,8.37,30.54,24.75,49.26,25.7,29.58,1.5,50.51-36.4,80.02-33.94,24.34,2.03,39.03,30.57,62.98,35.39,35.36,7.11,51.52-32.2,87.31-29.41,23.5,1.83,42.03,19.56,55.31,37.26-13.8-8.95-33.47-18.25-53.58-13.4-20.47,4.94-22.14,19.9-47.33,30.36-31.17,12.94-61.6,3.75-66.25,2.27-25.04-7.95-23.16-19.5-41.57-22.8-33.41-5.98-47.15,30.7-80.61,26.78-24.98-2.93-27.72-24.57-58.49-34.83-25.76-8.58-51.09-2.49-68.4,3.96,14.09-28.49,52.9-41.53,81.34-27.34Z"/>
  <path class="cls-9" d="M1253.83,981c-16.77,8.37-30.54,24.75-49.26,25.7-29.58,1.5-50.51-36.4-80.02-33.94-24.34,2.03-39.03,30.57-62.98,35.39-35.36,7.11-51.52-32.2-87.31-29.41-23.5,1.83-42.03,19.56-55.31,37.26,13.8-8.95,33.47-18.25,53.58-13.4,20.47,4.94,22.14,19.9,47.33,30.36,31.17,12.94,61.6,3.75,66.25,2.27,25.04-7.95,23.16-19.5,41.57-22.8,33.41-5.98,47.15,30.7,80.61,26.78,24.98-2.93,27.72-24.57,58.49-34.83,25.76-8.58,51.09-2.49,68.4,3.96-14.09-28.49-52.9-41.53-81.34-27.34Z"/>
  <path class="cls-9" d="M1271.31,1059.65c-16.77,8.37-30.54,24.75-49.26,25.7-29.58,1.5-50.51-36.4-80.02-33.94-24.34,2.03-39.03,30.57-62.98,35.39-35.36,7.11-51.52-32.2-87.31-29.41-23.5,1.83-42.03,19.56-55.31,37.26,13.8-8.95,33.47-18.25,53.58-13.4,20.47,4.94,22.14,19.9,47.33,30.36,31.17,12.94,61.6,3.75,66.25,2.27,25.04-7.95,23.16-19.5,41.57-22.8,33.41-5.98,47.15,30.7,80.61,26.78,24.98-2.93,27.72-24.57,58.49-34.83,25.76-8.58,51.09-2.49,68.4,3.96-14.09-28.49-52.9-41.53-81.34-27.34Z"/>
  <path class="cls-9" d="M1253.83,1136.3c-16.77,8.37-30.54,24.75-49.26,25.7-29.58,1.5-50.51-36.4-80.02-33.94-24.34,2.03-39.03,30.57-62.98,35.39-35.36,7.11-51.52-32.2-87.31-29.41-23.5,1.83-42.03,19.56-55.31,37.26,13.8-8.95,33.47-18.25,53.58-13.4,20.47,4.94,22.14,19.9,47.33,30.36,31.17,12.94,61.6,3.75,66.25,2.27,25.04-7.95,23.16-19.5,41.57-22.8,33.41-5.98,47.15,30.7,80.61,26.78,24.98-2.93,27.72-24.57,58.49-34.83,25.76-8.58,51.09-2.49,68.4,3.96-14.09-28.49-52.9-41.53-81.34-27.34Z"/>
  <path class="cls-1" d="M663.65,71.04c-140.07,0-268.36,50.39-367.75,134.04h735.51c-99.39-83.64-227.69-134.04-367.75-134.04Z"/>
  <path class="cls-3" d="M98.62,556.31h1130.05c-8.56-56.54-25.4-110.37-49.25-160.2H147.87c-23.85,49.83-40.69,103.65-49.25,160.2Z"/>
  <path class="cls-4" d="M152.01,897.42c46.59-21.47,76.07-18.73,95.29-10.39,21.68,9.4,28.2,24.99,50.4,25.17,38.09.3,52.61-45.35,89.41-40.9,12.61,1.52,24.78,8.56,40.2,17.48,15.36,8.88,21.22,15.08,29.71,20.97,22.01,15.26,41.81,14.63,81.29,19.19,49.11,5.68,45.53,11.44,87.49,14.85,89.01,7.24,183.67,13.4,262.53-28.54,16.52-8.79,32.09-19.59,49.64-26.08,7-2.59,29.38-6.69,54.31,1.25,25.67,8.18,29.63,22.25,48.47,22.82,17.9.55,30.16-11.66,38.45-17.48,16.08-11.28,44.19-17.37,97.12-.42,10.81-21.89,20.26-44.57,28.24-67.93H122.74c8.24,24.1,18.02,47.48,29.27,70.01Z"/>
  <path class="cls-2" d="M259.28,238.68c-36.63,36.68-68.3,78.32-93.93,123.82h996.58c-25.62-45.5-57.29-87.14-93.93-123.82H259.28Z"/>
  <path class="cls-5" d="M92.15,642.53c0,52.37,7.06,103.09,20.25,151.27h1102.48c13.19-48.18,20.25-98.9,20.25-151.27,0-17.74-.82-35.29-2.4-52.61H94.55c-1.58,17.33-2.4,34.87-2.4,52.61Z"/>
  <path class="cls-12" d="M668.53,1283.58c-72.08,0-140.06-8.44-191.42-23.76-25.94-7.74-46.56-16.93-61.29-27.33-15.76-11.12-24.83-23.6-27.04-37.18l-2.11-1.48,1.82-10.07,138.48-779.98c-16.06-12.43-30.31-26.9-42.51-43.16-50.62-16.38-98.99-39.83-143.85-69.76l-27.16-18.12,17.27-27.71c14.23-22.84,31.78-42.68,52.16-58.96,19.39-15.5,40.87-27.37,63.81-35.3l6.18-2.14c14.78-40.52,41.42-76.71,76.01-102.94C568.32,15.81,615.34,0,664.85,0s96.01,15.64,135.32,45.23c35.24,26.52,62.34,63.4,77.11,104.67l1.19.34c25.54,7.29,49.53,20.97,69.36,39.57,15.96,14.96,29.16,32.83,39.24,53.11l12.99,26.15-24.04,16.57c-38.77,26.72-80.42,48.67-123.88,65.26-12.01,17.89-26.43,33.89-42.99,47.7l139.4,785.15,1.82,10.23-2.13,1.45c-2.24,13.52-11.28,25.94-26.96,37.01-14.7,10.38-35.28,19.57-61.17,27.31-51.23,15.31-119.08,23.77-191.05,23.81h-.54Z"/>
  <path class="cls-6" d="M841.57,337.71c51.04-18.95,93.21-43.16,125.33-65.31l12.56-8.66-6.79-13.67c-9.22-18.56-21.28-34.89-35.83-48.54-17.97-16.85-39.68-29.25-62.78-35.84l-7.57-2.16-1.34.85c-26.21-85.75-106.08-148.3-200.3-148.3s-175.01,63.27-200.74,149.79l-4.18-2.64-7.99,2.76c-21.21,7.32-41.07,18.31-59.03,32.66-18.95,15.14-35.29,33.61-48.55,54.9l-9.02,14.48,14.2,9.47c35.9,23.95,84.81,50.61,144.8,69.4,13.8,19.32,30.8,36.21,50.21,49.88-46.62,262.58-93.24,525.16-139.86,787.74,0,.05-.02.11-.03.16-.11.63-.22,1.26-.34,1.89.03.02.06.04.09.06-.06.68-.09,1.36-.09,2.04,0,43.54,118.29,78.83,264.2,78.83.08,0,.16,0,.24,0,.1,0,.2,0,.3,0,145.67-.09,263.67-35.34,263.67-78.83,0-.68-.03-1.36-.09-2.04.03-.02.06-.04.09-.06l-.34-1.89c0-.05-.02-.11-.03-.16l-140.71-792.52c19.65-15,36.58-33.39,49.91-54.3Z"/>
  <path class="cls-14" d="M869.23,182.63c-32.55,20.54-107.49,61.41-209.34,60.44-97.76-.93-169.7-39.92-202.21-60.44-13.66,4.72-33.28,13.39-53.78,29.77-21.98,17.56-36.19,36.97-44.6,50.46,44.54,29.71,147.55,89.33,288.99,91.02,153.6,1.83,264.72-65.71,308.62-95.97-5.64-11.34-15.58-28.03-32.11-43.53-21.36-20.03-43.21-28.23-55.57-31.75Z"/>
  <path class="cls-12" d="M648.08,371.48c-33.98-.41-65.99-4.03-95.89-9.87,30.43,25.95,69.83,41.66,112.86,41.66,46.38,0,88.56-18.26,119.81-47.92-39.54,9.96-83.14,16.17-130.42,16.17-2.02.02-4.24-.01-6.36-.04Z"/>
  <path class="cls-12" d="M663.45,225.48c70.13,0,127.98-20.54,169.62-42.33-20.21-73.84-87.85-128.28-168.01-128.28s-148.71,55.15-168.42,129.72c40.66,20.85,96.32,40.24,163.42,40.88,1.14.01,2.26.02,3.39.02Z"/>
  <path class="cls-14" d="M979.47,263.74l-6.79-13.67c-9.22-18.56-21.28-34.89-35.83-48.54-17.97-16.85-39.68-29.25-62.78-35.84l-7.57-2.16-6.66,4.2c-7.98,5.04-16.93,10.26-26.77,15.41-41.64,21.79-99.49,42.33-169.62,42.33-1.13,0-2.25,0-3.39-.02-67.1-.64-122.76-20.02-163.42-40.88-10.96-5.62-20.85-11.35-29.56-16.85l-7.15-4.51-7.99,2.76c-21.21,7.32-41.07,18.31-59.03,32.66-18.95,15.14-35.29,33.61-48.55,54.9l-9.02,14.48,14.2,9.47c46.84,31.24,115.8,67.12,202.66,84.1,29.9,5.85,61.91,9.47,95.89,9.87,2.12.02,4.34.06,6.36.04,47.28,0,90.88-6.21,130.42-16.17,77.05-19.4,138.69-53.06,182.04-82.94l12.56-8.66Z"/>
  <path class="cls-12" d="M384.07,257.86c59.73,37.03,150.38,77.05,264.43,78.41,124.24,1.49,221.82-43.06,285.06-83.94-5.97-9.32-12.93-17.73-20.8-25.12-12.01-11.27-26.13-19.94-41.19-25.35-46.09,27.81-117.75,58.82-208.13,58.82-1.25-.02-2.48,0-3.73-.02-88.43-.84-158.64-31.28-203.94-58.54-14.55,5.88-28.27,13.94-40.89,24.02-11.44,9.14-21.76,19.77-30.81,31.71Z"/>
  <circle class="cls-10" cx="866.9" cy="253.03" r="14.35" transform="translate(-30.84 351.01) rotate(-22.5)"/>
  <circle class="cls-10" cx="664.85" cy="300.45" r="14.35" transform="translate(280.7 920.71) rotate(-82.55)"/>
  <circle class="cls-10" cx="455.65" cy="253.03" r="14.35" transform="translate(104.14 637.84) rotate(-76.63)"/>
  <path class="cls-10" d="M804.22,172.4c-4.69-14.14-17.82-47.01-51.11-71.14-60.42-43.8-132.48-19.11-139.51-16.58,18.87-2.26,77.23-6.76,133.3,29.7,29.31,19.05,47.27,42.33,57.32,58.02Z"/>
  <ellipse class="cls-12" cx="668.53" cy="1187.22" rx="234.83" ry="59.27"/>
  <ellipse class="cls-12" cx="668.53" cy="1187.22" rx="112.89" ry="28.49"/>
  <path class="cls-12" d="M764.16,409.76c46.4,239.39,92.79,478.79,139.19,718.18-52.13-236.74-104.27-473.47-156.4-710.21,2.55-1.14,5.11-2.31,7.68-3.5,3.22-1.49,6.39-2.98,9.53-4.47Z"/>
  <path class="cls-12" d="M573,413.36c-19.94,126.82-39.87,253.63-59.81,380.45,24.93-124.51,49.86-249.03,74.78-373.54-4.99-2.3-9.98-4.6-14.97-6.9Z"/>
  <polygon class="cls-12" points="513.19 1187.22 536.08 1017.78 536.08 1158.72 513.19 1187.22"/>
  <path class="cls-12" d="M839.76,1163.16c-10.49-89.71-20.97-179.43-31.46-269.14,17.48,92.04,34.95,184.09,52.43,276.13-6.99-2.33-13.98-4.66-20.97-6.99Z"/>
  <g>
    <path class="cls-8" d="M661.64,1101.64c-11.45,0-21.65-4.22-28.7-11.87-7.99-8.67-11.19-20.63-9-33.67,2.07-12.28,8.76-24.16,18.84-33.46,9.09-8.39,20.18-13.87,31.31-15.63l-16.56-73.62c-2.11-9.37,3.8-18.72,13.18-20.83l45.27-10.18c.99-.22,2.01-.34,3.03-.34,6.48,0,12,4.42,13.43,10.75l2.35,10.44c1.67,7.41-3,14.79-10.41,16.45l-25.87,5.82,18.79,83.54c3.47,8.57,3.76,18.77.82,28.83-3,10.23-9.03,19.75-17.46,27.52-11.2,10.32-25.41,16.24-38.99,16.24h0Z"/>
    <path class="cls-7" d="M719,910.09c2.62,0,4.98,1.81,5.58,4.47l2.35,10.44c.69,3.09-1.24,6.15-4.33,6.85l-26.29,5.91c-4.1.92-6.67,4.99-5.75,9.09l19.04,84.65c6.17,14.31.75,34.02-14.4,47.99-10.1,9.31-22.39,14.11-33.55,14.11-8.88,0-17.05-3.05-22.79-9.28-12.97-14.07-8.77-39.03,9.38-55.77,10.1-9.31,22.39-14.11,33.55-14.11.75,0,1.5.02,2.23.07l-18.64-82.87c-1.14-5.06,2.04-10.08,7.1-11.22l11.55-2.6,33.71-7.58c.42-.1.85-.14,1.26-.14h0ZM719,894.02c-1.61,0-3.22.18-4.79.53l-33.71,7.58-11.55,2.6c-6.64,1.49-12.29,5.48-15.93,11.23-3.64,5.75-4.82,12.57-3.33,19.2l14.81,65.84c-9.77,2.97-19.17,8.36-27.17,15.73-11.39,10.5-18.96,24.01-21.32,38.04-1.23,7.32-1,14.44.68,21.16,1.84,7.36,5.32,13.85,10.33,19.29,8.6,9.33,20.89,14.46,34.62,14.46,15.58,0,31.78-6.7,44.45-18.37,9.5-8.76,16.32-19.54,19.73-31.17,3.38-11.55,3.08-23.36-.83-33.46l-16.89-75.09,18.03-4.05c5.68-1.28,10.53-4.69,13.64-9.61,3.11-4.92,4.13-10.76,2.85-16.44l-2.35-10.44c-1.09-4.86-3.85-9.23-7.75-12.32-3.84-3.03-8.64-4.7-13.52-4.7h0Z"/>
  </g>
  <g>
    <path class="cls-11" d="M575.94,904.53c-1.84,0-3.67-.24-5.44-.71-6.79-1.81-12.21-6.8-15.25-14.03-2.85-6.78-3.28-14.81-1.19-22.62,1.84-6.89,5.42-12.9,10.17-17.24l-25.4-25.12-4.84-4.83c-2.23-2.23-3.47-5.19-3.47-8.35,0-3.16,1.22-6.12,3.45-8.36l51.63-51.74c2.23-2.24,5.2-3.47,8.36-3.47s6.09,1.22,8.32,3.43l43.4,43.06c4.45,3.2,7.83,8.2,9.55,14.16,1.74,6.04,1.74,12.69,0,19.22-1.83,6.85-5.35,12.82-10.19,17.25-4.96,4.55-10.96,7.05-16.89,7.05h0c-1.84,0-3.67-.24-5.44-.71-6.79-1.81-12.21-6.8-15.25-14.03-2.85-6.78-3.28-14.81-1.19-22.62,1.84-6.89,5.43-12.91,10.19-17.26l-21.24-21.2c-.09-.09-.21-.14-.34-.14s-.25.05-.35.14l-35.4,35.47c-.19.19-.19.5,0,.69l34.37,34.3c4.45,3.2,7.83,8.2,9.54,14.15,1.74,6.04,1.74,12.69,0,19.22-1.83,6.85-5.35,12.82-10.19,17.25-4.96,4.55-10.96,7.05-16.89,7.05Z"/>
    <path class="cls-7" d="M593.95,753.3c1.67,0,3.35.64,4.63,1.91l43.71,43.38c7.47,5.1,10.94,16.43,7.86,27.99-3.23,12.09-12.55,20.41-22.01,20.41-1.37,0-2.74-.17-4.09-.54-10.72-2.86-16.42-16.4-12.73-30.24,2.19-8.22,7.21-14.7,13.17-18l-25.58-25.53c-1.12-1.12-2.58-1.68-4.05-1.68s-2.94.56-4.06,1.68l-35.4,35.47c-2.24,2.24-2.23,5.87,0,8.11l34.69,34.62c7.47,5.1,10.94,16.43,7.86,27.99-3.23,12.09-12.55,20.41-22.01,20.41-1.37,0-2.74-.17-4.09-.54-10.72-2.86-16.42-16.4-12.73-30.24,2.19-8.22,7.21-14.7,13.17-18l-29.77-29.44-4.83-4.82c-2.57-2.56-2.57-6.72,0-9.29l51.63-51.74c1.28-1.29,2.97-1.93,4.65-1.93h0ZM593.95,742.8c-4.56,0-8.85,1.78-12.08,5.01l-51.63,51.74c-3.22,3.23-4.99,7.51-4.98,12.07,0,4.56,1.78,8.84,5.01,12.06l4.83,4.82s.02.02.03.03l21.77,21.53c-3.61,4.44-6.34,9.82-7.93,15.75-2.38,8.93-1.88,18.17,1.43,26.01,1.73,4.12,4.15,7.67,7.18,10.55,3.33,3.17,7.22,5.36,11.56,6.52,2.21.59,4.5.89,6.8.89,7.25,0,14.5-2.99,20.43-8.43,5.58-5.11,9.63-11.95,11.72-19.77,1.99-7.45,1.98-15.06-.03-22.02-1.99-6.92-5.94-12.81-11.16-16.7l-30.72-30.66,28.68-28.74,14.28,14.25c-3.62,4.45-6.37,9.84-7.96,15.79-2.38,8.93-1.88,18.17,1.43,26.01,1.73,4.12,4.15,7.67,7.18,10.55,3.33,3.17,7.22,5.36,11.56,6.52,2.21.59,4.5.89,6.8.89,7.25,0,14.5-2.99,20.43-8.43,5.58-5.11,9.63-11.95,11.72-19.77,1.99-7.45,1.98-15.06-.03-22.02-2-6.93-5.94-12.82-11.17-16.71l-43.12-42.79c-3.22-3.19-7.48-4.95-12.02-4.95h0Z"/>
  </g>
  <g>
    <path class="cls-13" d="M620.29,697.29c-8.36,0-16.87-2.37-24.63-6.86-9.56-5.53-16.92-13.7-20.7-22.98-4.01-9.84-3.61-19.77,1.13-27.96,5.54-9.58,16.48-15.29,29.28-15.29,8.36,0,16.88,2.37,24.64,6.86,8.84,5.11,15.72,12.41,19.69,20.67l55.03-31.25c1.82-1.03,3.89-1.58,5.97-1.58,4.32,0,8.34,2.32,10.5,6.07l20.18,35.02c1.24,2.16,1.57,4.67.93,7.07-.65,2.4-2.19,4.41-4.35,5.66l-10.17,5.86c-1.41.81-3.02,1.25-4.65,1.25-3.32,0-6.42-1.79-8.08-4.67l-11.65-20.22-60.43,34.82c-5.92,4.86-13.94,7.53-22.67,7.53Z"/>
    <path class="cls-7" d="M710.7,625.12c2.04,0,4.02,1.06,5.11,2.95l5.43,9.42,14.75,25.6c.86,1.49.35,3.39-1.14,4.25l-10.17,5.86c-.49.28-1.02.42-1.55.42-1.08,0-2.12-.56-2.7-1.56l-13.11-22.75c-.61-1.06-1.72-1.65-2.85-1.65-.56,0-1.12.14-1.64.44l-63.44,36.55c-4.94,4.23-11.71,6.43-19.1,6.43-6.98,0-14.49-1.96-21.52-6.02-17.32-10.02-25.07-29.03-17.3-42.45,4.62-7.98,13.67-12.19,23.9-12.19,6.98,0,14.5,1.96,21.53,6.03,10.29,5.95,17.2,15.08,19.49,24.32l61.41-34.87c.92-.52,1.92-.77,2.91-.77h0ZM710.7,612.69h0c-3.16,0-6.29.83-9.04,2.39l-49.64,28.19c-4.6-6.98-11.07-13.06-18.9-17.59-8.7-5.04-18.3-7.7-27.75-7.7-7.03,0-13.8,1.52-19.59,4.4-6.41,3.19-11.61,8.03-15.06,13.99-2.95,5.1-4.52,10.76-4.68,16.8-.14,5.53.93,11.12,3.17,16.61,4.3,10.56,12.59,19.8,23.35,26.02,8.7,5.03,18.29,7.69,27.74,7.69,9.97,0,19.21-3.05,26.2-8.6l54.63-31.48,8.55,14.84c2.76,4.8,7.92,7.78,13.46,7.78,2.72,0,5.4-.72,7.75-2.08l10.17-5.86c3.6-2.07,6.17-5.42,7.25-9.43,1.08-4.01.53-8.19-1.54-11.79l-14.75-25.6-5.43-9.42c-3.26-5.66-9.35-9.18-15.88-9.18h0Z"/>
  </g>
</svg>